<svg height="512" viewBox="0 0 256 256" width="512" xmlns="http://www.w3.org/2000/svg"><path d="m64.96 180.498h-43.301l21.65-43.664 21.651-43.663 21.651 43.663 21.65 43.664z" fill="#7bac51"/><path d="m191.04 180.498h-43.302l21.651-43.664 21.651-43.663 21.65 43.663 21.651 43.664z" fill="#7bac51"/><rect fill="#fcc24c" height="20.543" rx="10.271" width="248" x="4" y="180.498"/><path d="m150.022 38.49h-22.022v-15.109h22.022l-6 7.714z" fill="#ff4397"/><path d="m241.728 180.5h-10a10.272 10.272 0 1 1 0 20.543h10a10.272 10.272 0 1 0 0-20.543z" fill="#dea42e"/><path d="m14.271 201.041h10a10.272 10.272 0 0 1 0-20.543h-10a10.272 10.272 0 0 0 0 20.543z" fill="#fce06a"/><path d="m69.96 103.254-5-10.083-21.651 43.663-21.65 43.664h10l21.65-43.664z" fill="#99ca6f"/><path d="m212.69 136.834-21.65-43.663-5 10.083 16.65 33.58 21.651 43.664h10z" fill="#5d8e33"/><path d="m108.261 182.5h-86.6a2 2 0 0 1 -1.792-2.889l43.3-87.327a2 2 0 0 1 3.584 0l43.3 87.327a2 2 0 0 1 -1.792 2.889zm-83.378-4h80.154l-40.077-80.828z" fill="#690589"/><path d="m234.341 182.5h-86.6a2 2 0 0 1 -1.792-2.889l43.3-87.327a2 2 0 0 1 3.583 0l43.3 87.327a2 2 0 0 1 -1.792 2.889zm-83.379-4h80.155l-40.077-80.828z" fill="#690589"/><path d="m128 180.498h-66.497l33.248-67.054 33.249-67.054 33.249 67.054 33.248 67.054z" fill="#7bac51"/><path d="m194.5 182.5h-133a2 2 0 0 1 -1.792-2.889l66.5-134.111a2 2 0 0 1 3.584 0l66.5 134.107a2 2 0 0 1 -1.792 2.893zm-129.77-4h126.543l-63.273-127.607z" fill="#690589"/><path d="m241.728 203.041h-227.457a12.272 12.272 0 0 1 0-24.543h227.457a12.272 12.272 0 1 1 0 24.543zm-227.457-20.541a8.272 8.272 0 0 0 0 16.543h227.457a8.272 8.272 0 1 0 0-16.543z" fill="#690589"/><path d="m128 48.391a2 2 0 0 1 -2-2v-23.011a2 2 0 1 1 4 0v23.011a2 2 0 0 1 -2 2z" fill="#690589"/><path d="m150.022 40.49h-22.022a2 2 0 0 1 -2-2v-15.11a2 2 0 0 1 2-2h22.022a2 2 0 0 1 1.579 3.228l-5.024 6.461 5 6.16a2 2 0 0 1 -1.554 3.261zm-20.022-4h15.824l-3.355-4.134a2 2 0 0 1 -.025-2.488l3.49-4.488h-15.934z" fill="#690589"/><path d="m47.2 150.834a2 2 0 0 1 -1.791-2.889l5.95-12a2 2 0 1 1 3.584 1.778l-5.95 12a2 2 0 0 1 -1.793 1.111z" fill="#690589"/><circle cx="128" cy="190.769" fill="#526faa" r="41.85" transform="matrix(.167 -.986 .986 .167 -81.46 285.127)"/><path d="m128 148.919c-1.01 0-2.008.048-3 .119a41.838 41.838 0 0 1 0 83.463c.992.07 1.99.118 3 .118a41.85 41.85 0 0 0 0-83.7z" fill="#34518c"/><path d="m128 232.619c1.01 0 2.008-.048 3-.118a41.838 41.838 0 0 1 0-83.463c-.992-.071-1.99-.119-3-.119a41.85 41.85 0 0 0 0 83.7z" fill="#708dc8"/><path d="m128 234.62a43.851 43.851 0 1 1 43.85-43.851 43.9 43.9 0 0 1 -43.85 43.851zm0-83.7a39.851 39.851 0 1 0 39.85 39.85 39.894 39.894 0 0 0 -39.85-39.851z" fill="#690589"/><circle cx="128" cy="190.769" fill="#f4efed" r="31.279" transform="matrix(.936 -.352 .352 .936 -58.939 57.237)"/><g fill="#690589"><path d="m128 224.048a33.279 33.279 0 1 1 33.279-33.279 33.317 33.317 0 0 1 -33.279 33.279zm0-62.557a29.279 29.279 0 1 0 29.279 29.278 29.311 29.311 0 0 0 -29.279-29.278z"/><path d="m128 192.769a2 2 0 0 1 -2-2v-18.21a2 2 0 1 1 4 0v18.21a2 2 0 0 1 -2 2z"/><path d="m128 166.158a2 2 0 0 1 -2-2v-3.667a2 2 0 1 1 4 0v3.667a2 2 0 0 1 -2 2z"/><path d="m128 223.048a2 2 0 0 1 -2-2v-3.668a2 2 0 0 1 4 0v3.668a2 2 0 0 1 -2 2z"/><path d="m101.389 192.769h-3.668a2 2 0 0 1 0-4h3.668a2 2 0 1 1 0 4z"/><path d="m158.279 192.769h-3.668a2 2 0 0 1 0-4h3.668a2 2 0 0 1 0 4z"/></g><circle cx="128" cy="190.769" fill="#fcc24c" r="6"/><path d="m128 198.769a8 8 0 1 1 8-8 8.009 8.009 0 0 1 -8 8zm0-12a4 4 0 1 0 4 4 4 4 0 0 0 -4-4z" fill="#690589"/></svg>