<svg id="Capa_1" enable-background="new 0 0 512 512" height="512" viewBox="0 0 512 512" width="512" xmlns="http://www.w3.org/2000/svg"><g><g><g><path d="m317.153 502h177.558l-121.144-212.36-25.742 25.745-38.264-38.269-31.24 31.243-17.582-17.583-31.976 56.761" fill="#c193dc"/></g><path d="m309.56 277.116 38.265 38.269 25.742-25.745-56.09-98.324-56.738 99.46 17.582 17.583z" fill="#faf7f5"/><g><path d="m130.174 356.466-98.308 145.534h299.66l-96.033-142.167" fill="#ccf5fc"/><path d="m178.272 349.025 34.014 34.018 23.207-23.21-53.797-79.641-51.522 76.274 20.329 20.331z" fill="#faf7f5"/></g><path d="m388.728 161.462h-71.251v-49.679h71.251l-15.161 24.839z" fill="#ff7d97"/><g><g><path d="m165.021 168.301h-2.537c-.861-26.307-22.457-47.369-48.974-47.369-26.516 0-48.113 21.062-48.974 47.369h-17.201c-16.594 0-30.046 13.452-30.046 30.046 0 16.594 13.452 30.046 30.046 30.046h117.686c16.594 0 30.046-13.452 30.046-30.046 0-16.594-13.452-30.046-30.046-30.046z" fill="#faf7f5"/></g><g><path d="m266.46 45.336h-1.892c-.642-19.624-16.753-35.336-36.533-35.336s-35.891 15.712-36.533 35.336h-12.832c-12.378 0-22.413 10.035-22.413 22.413 0 12.379 10.035 22.413 22.413 22.413h87.79c12.378 0 22.413-10.035 22.413-22.413 0-12.378-10.035-22.413-22.413-22.413z" fill="#ccf5fc"/></g></g></g><g><path d="m503.397 497.045-175.92-308.382v-17.201h61.25c3.616 0 6.951-1.952 8.721-5.105 1.77-3.154 1.699-7.018-.184-10.104l-11.98-19.63 11.98-19.629c1.884-3.087 1.954-6.95.184-10.104s-5.104-5.106-8.721-5.106h-71.25c-5.522 0-10 4.477-10 10v76.88l-80.201 141.14-37.294-55.209c-1.859-2.753-4.964-4.402-8.286-4.402s-6.427 1.649-8.286 4.402l-149.83 221.807c-2.071 3.065-2.28 7.022-.545 10.289s5.132 5.309 8.831 5.309h319.504c5.522 0 10-4.478 10-10s-4.478-10-10-10h-14.532l-97.045-143.667 23.191-41.169 8.265 8.266c1.875 1.876 4.419 2.93 7.071 2.93s5.196-1.054 7.071-2.93l24.169-24.172 31.193 31.197c1.875 1.876 4.419 2.93 7.071 2.93s5.196-1.054 7.071-2.93l16.478-16.479 106.12 186.024h-35.711c-5.522 0-10 4.478-10 10s4.478 10 10 10h52.929c3.564 0 6.858-1.897 8.648-4.978 1.788-3.081 1.804-6.881.038-9.977zm-321.701-198.988 40.893 60.539-10.304 10.304-26.942-26.945c-1.875-1.876-4.419-2.93-7.071-2.93s-5.196 1.054-7.071 2.93l-20.698 20.7-7.426-7.426zm-131.008 193.943 80.986-119.891 11.757 11.759c1.875 1.876 4.419 2.93 7.071 2.93s5.196-1.054 7.071-2.93l20.698-20.7 26.942 26.945c1.875 1.876 4.419 2.93 7.071 2.93s5.196-1.054 7.071-2.93l14.635-14.637 78.713 116.524zm276.789-370.217h43.431l-5.877 9.629c-1.952 3.199-1.952 7.221 0 10.42l5.878 9.63h-43.432zm-10.845 148.262c-1.875-1.876-4.419-2.93-7.071-2.93s-5.196 1.054-7.071 2.93l-24.169 24.171-5.113-5.114 44.27-77.604 43.622 76.469-13.274 13.276z"/><g><path d="m396.76 512c-4.177 0-8.008-2.712-9.415-6.636-1.389-3.873-.196-8.328 2.946-10.986 3.284-2.778 8.09-3.122 11.745-.864 3.496 2.16 5.333 6.409 4.523 10.436-.928 4.613-5.082 8.05-9.799 8.05z"/></g><path d="m266.46 100.163h-87.79c-17.873 0-32.413-14.541-32.413-32.414s14.54-32.413 32.413-32.413h4.155c4.986-20.44 23.28-35.336 45.21-35.336 22.199 0 40.671 15.264 45.387 36.089 14.538 3.193 25.451 16.177 25.451 31.66 0 17.873-14.54 32.414-32.413 32.414zm-87.79-44.827c-6.845 0-12.413 5.568-12.413 12.413s5.568 12.414 12.413 12.414h87.79c6.845 0 12.413-5.569 12.413-12.414s-5.568-12.413-12.413-12.413h-1.893c-5.395 0-9.818-4.28-9.995-9.673-.47-14.391-12.127-25.663-26.537-25.663s-26.067 11.272-26.539 25.663c-.176 5.393-4.599 9.673-9.994 9.673z"/><path d="m165.021 238.394h-117.686c-22.081 0-40.046-17.965-40.046-40.047 0-22.081 17.965-40.046 40.046-40.046h8.319c2.319-11.639 8.105-22.31 16.787-30.728 11.066-10.731 25.651-16.641 41.069-16.641s30.003 5.91 41.069 16.641c8.811 8.544 14.639 19.407 16.888 31.247 19.027 3.092 33.6 19.64 33.6 39.527 0 22.082-17.965 40.047-40.046 40.047zm-117.686-60.093c-11.054 0-20.046 8.992-20.046 20.046s8.992 20.047 20.046 20.047h117.686c11.054 0 20.046-8.993 20.046-20.047s-8.992-20.046-20.046-20.046h-2.537c-5.395 0-9.818-4.28-9.995-9.673-.69-21.139-17.813-37.696-38.979-37.696s-38.288 16.558-38.979 37.696c-.177 5.393-4.6 9.673-9.995 9.673z"/></g></g></svg>